# xmcd
#
# Track frame offsets: 
#        150
#        10387
#        20287
#        33377
#        44065
#        56390
#        67032
#        78892
#        90787
#        100427
#        112885
#        125100
#        135977
#        145747
#        155927
#        167122
#        177925
#        190100
#        202990
#        212855
#        222767
#        234407
#        243630
#        254075
#        267627
#        277780
#        288490
#        303737
#        313532
#        326955
#        337147
#
# Disc length: 4659 seconds
#
# Revision: 2
# Processed by: cddbd v1.5.2PL0 Copyright (c) Steve Scherf et al.
# Submitted via: ExactAudioCopyFreeDBPlugin 1.0
#
DISCID=d712311f
DTITLE=Various Artist - Blowing the Fuse:  459 R&B Classics, 1945-196
DTITLE=0 [Bear Family]
DYEAR=1957
DGENRE=Rhythm and Blues
TTITLE0=Fats Domino - Blue Monday
TTITLE1=LaVern Baker and The Gliders - Jim Dandy
TTITLE2=Mickey and Sylvia - Love is Strange
TTITLE3=Clarence "Frogman" Henry - Ain't Got No Home
TTITLE4=Ivory Joe Hunter - Since I Met You Baby
TTITLE5=The Gladiolas - Little Darling
TTITLE6=Little Junior Parker - Next Time You See Me
TTITLE7=The Del Vikings - Come Go with Me
TTITLE8=Ruth Brown - Lucky Lips
TTITLE9=Lloyd Price - Just Because
TTITLE10=The Coasters - Searchin'
TTITLE11=Little Richard - Lucille
TTITLE12=Fats Domino - I'm Walking
TTITLE13=Johnny and Joe - Over the Mountain Across the Sea
TTITLE14=Chuck Willis - C.C. Rider
TTITLE15=Larry Williams - Short Fat Fannie
TTITLE16=Chuck Berry - School Day
TTITLE17=The Velvetones - Glory of Love
TTITLE18=Richard Berry - Louie Louie
TTITLE19=The Bobbettes - Mr. Lee
TTITLE20=The "5" Royales - Think
TTITLE21=Roy Brown - Let the Four Winds Blow
TTITLE22=The Tuneweavers - Happy Happy Birthday Baby
TTITLE23=Slim Harpo - I'm a King Bee
TTITLE24=Huey "Piano" Smith - Rockin' Pneumonia and the Boogie Woogie Fl
TTITLE24=u
TTITLE25=Thurston Harris - Little Bitty Pretty One
TTITLE26=Andre Williams (Mr. Rhythm) - Jailbait
TTITLE27=Oscar "T.V. Slim" Wills - Flat Foot Sam
TTITLE28=Bobby "Blue" Bland - Farther Up the Road
TTITLE29=Ernie Freeman and His Combo - Raunchy
TTITLE30=Jackie Wilson - Reet Petite
EXTD=
EXTT0=
EXTT1=
EXTT2=
EXTT3=
EXTT4=
EXTT5=
EXTT6=
EXTT7=
EXTT8=
EXTT9=
EXTT10=
EXTT11=
EXTT12=
EXTT13=
EXTT14=
EXTT15=
EXTT16=
EXTT17=
EXTT18=
EXTT19=
EXTT20=
EXTT21=
EXTT22=
EXTT23=
EXTT24=
EXTT25=
EXTT26=
EXTT27=
EXTT28=
EXTT29=
EXTT30=
PLAYORDER=
